<?xml version="1.0" encoding="UTF-8"?>
<svg version="1.1" xmlns="http://www.w3.org/2000/svg" width="512" height="512">
<path d="M0 0 C1.09173523 -0.0127597 2.18347046 -0.02551941 3.30828857 -0.03866577 C5.06462616 -0.04200424 5.06462616 -0.04200424 6.85644531 -0.04541016 C8.67828339 -0.05539536 8.67828339 -0.05539536 10.53692627 -0.06558228 C13.10565682 -0.0757009 15.67441361 -0.08039954 18.24316406 -0.08007812 C22.15637026 -0.08444121 26.06843931 -0.12074412 29.98144531 -0.15869141 C32.48144147 -0.16456182 34.98144297 -0.16852971 37.48144531 -0.17041016 C39.22563751 -0.19196671 39.22563751 -0.19196671 41.00506592 -0.21395874 C48.99221011 -0.16945542 55.13039008 1.13310916 61.63378906 5.90380859 C65.85953267 10.7284765 68.02059691 15.91431884 70.24487305 21.84790039 C73.49290077 30.35188594 77.56806232 34.60955057 85.86816406 38.34521484 C94.02406499 41.34936709 101.3678261 40.37740146 109.43457031 37.29052734 C117.64460077 32.9846551 120.87290141 26.55711689 124.43457031 18.29052734 C128.117842 10.17665348 132.33099595 5.27123054 140.43457031 1.29052734 C146.23825876 -0.09360403 152.18145614 0.09277349 158.11425781 0.05224609 C159.80435471 0.04013847 159.80435471 0.04013847 161.52859497 0.02778625 C163.90723144 0.01398677 166.28588736 0.00324622 168.66455078 -0.00463867 C171.0910423 -0.01617791 173.51750805 -0.03666006 175.94384766 -0.06616211 C179.45915897 -0.10888042 182.97371903 -0.12501198 186.48925781 -0.13525391 C187.56658173 -0.15276199 188.64390564 -0.17027008 189.75387573 -0.18830872 C197.78985651 -0.16528491 203.08438547 1.39718589 209.18457031 6.66552734 C214.24403034 12.56823071 216.53486934 16.84118406 216.63989258 24.59790039 C216.6598378 25.89902267 216.67978302 27.20014496 216.70033264 28.54069519 C216.71731577 29.96121094 216.73419462 31.38172795 216.75097656 32.80224609 C216.77155168 34.2552804 216.79254831 35.7083088 216.81394958 37.16133118 C216.86911265 40.98352264 216.91854729 44.8057676 216.96679688 48.62805176 C217.01705404 52.52926386 217.07271809 56.43039839 217.12792969 60.33154297 C217.23544073 67.98447204 217.3369013 75.63746567 217.43457031 83.29052734 C218.18440186 83.69174805 218.9342334 84.09296875 219.70678711 84.50634766 C221.18659058 85.30443848 221.18659058 85.30443848 222.69628906 86.11865234 C223.67299561 86.64362305 224.64970215 87.16859375 225.65600586 87.70947266 C234.08348171 92.50486266 238.88481639 99.12934721 242.57910156 108.05615234 C243.6521582 112.1131884 243.81833453 115.8599951 243.80957031 120.04052734 C243.80795898 120.83749023 243.80634766 121.63445312 243.8046875 122.45556641 C243.67419084 128.73731759 242.59511221 133.78965338 239.43457031 139.29052734 C238.83644531 140.34240234 238.23832031 141.39427734 237.62207031 142.47802734 C233.38637323 147.92392359 229.48292479 151.98405167 223.19238281 155.00537109 C221.85264404 155.65493774 221.85264404 155.65493774 220.48583984 156.31762695 C219.8089209 156.63868408 219.13200195 156.95974121 218.43457031 157.29052734 C218.28293462 160.43616149 218.13808732 163.58190704 217.99707031 166.72802734 C217.94905273 167.75686035 217.90103516 168.78569336 217.8515625 169.84570312 C217.57675692 176.21445892 217.40299402 182.57099429 217.34580994 188.94502258 C217.31279703 192.6024294 217.2627573 196.25955805 217.21359253 199.91677856 C217.19436973 201.73740629 217.18377719 203.55814725 217.18215942 205.37887573 C217.15850394 225.06947645 217.15850394 225.06947645 211.43457031 232.29052734 C205.37593361 237.95767846 199.90644992 240.53712777 191.52938843 240.55122375 C190.84684073 240.5550493 190.16429303 240.55887485 189.46106207 240.56281632 C187.18050535 240.57311114 184.90020206 240.56916085 182.61962891 240.56518555 C180.98158536 240.56953416 179.34354386 240.57471781 177.70550537 240.58067322 C173.25890076 240.59406329 168.81238117 240.59464152 164.36576033 240.59210992 C160.6484883 240.59103949 156.93123341 240.5959258 153.21396506 240.60071534 C144.43738943 240.61181211 135.66085659 240.612248 126.88427734 240.60620117 C117.84742668 240.60017034 108.81073206 240.61244933 99.77390802 240.63377124 C92.00383814 240.65142642 84.23381773 240.65738215 76.46372855 240.6541335 C71.82833912 240.65232559 67.19306084 240.65490686 62.55768967 240.66884804 C58.1926216 240.68148436 53.82779505 240.67942774 49.46273041 240.66643715 C47.86768891 240.66408381 46.27263013 240.66676109 44.67760849 240.67506027 C25.99698509 240.76518646 9.09662967 235.6577242 -4.60668945 222.49511719 C-19.45500264 207.4845977 -23.86576854 190.4885102 -23.87182617 170.00561523 C-23.87945804 168.36535774 -23.88788728 166.72510379 -23.89704895 165.08485413 C-23.91889367 160.6509657 -23.92777874 156.21714618 -23.93287539 151.78321004 C-23.93652946 149.0086119 -23.94277478 146.23403155 -23.94987679 143.45944023 C-23.97433192 133.76746713 -23.98741562 124.07554729 -23.9909668 114.38354492 C-23.99460379 105.3680892 -24.02452102 96.35297353 -24.06637138 87.33762175 C-24.10111589 79.57937464 -24.11651592 71.82124009 -24.11721283 64.06291574 C-24.11800392 59.43701965 -24.12666586 54.81147084 -24.15521049 50.18565559 C-24.18146432 45.83437573 -24.18355592 41.48372944 -24.16755486 37.13240623 C-24.16574644 35.54176573 -24.17237597 33.95108813 -24.18837357 32.36052704 C-24.27188941 23.5130945 -24.07734706 15.6441199 -18.56542969 8.29052734 C-13.08352638 3.1307528 -7.64984249 0.06096615 0 0 Z " fill="#EF524F" transform="translate(23.5654296875,271.70947265625)"/>
<path d="M0 0 C0.79696289 0.00161133 1.59392578 0.00322266 2.41503906 0.00488281 C8.69679025 0.13537948 13.74912604 1.2144581 19.25 4.375 C20.8278125 5.2721875 20.8278125 5.2721875 22.4375 6.1875 C27.88339625 10.42319708 31.94352433 14.32664552 34.96484375 20.6171875 C35.39788818 21.51034668 35.83093262 22.40350586 36.27709961 23.32373047 C36.59815674 24.00064941 36.91921387 24.67756836 37.25 25.375 C40.20809614 25.52778079 43.16627903 25.67256912 46.125 25.8125 C47.10428467 25.86051758 48.08356934 25.90853516 49.0925293 25.95800781 C55.39848563 26.24095838 61.69136699 26.40813582 68.00299072 26.46376038 C71.74785022 26.49685899 75.49244148 26.54694213 79.23712158 26.59597778 C81.10924452 26.61520818 82.98147773 26.62579376 84.85369873 26.62741089 C105.10656309 26.65104921 105.10656309 26.65104921 112.25 32.375 C117.91483928 38.43812005 120.49659457 43.8996417 120.51069641 52.28018188 C120.51452196 52.96272958 120.51834751 53.64527728 120.52228898 54.34850824 C120.5325838 56.62906496 120.52863351 58.90936825 120.5246582 61.18994141 C120.52900682 62.82798495 120.53419047 64.46602645 120.54014587 66.10406494 C120.55353595 70.55066955 120.55411417 74.99718915 120.55158257 79.44380999 C120.55051214 83.16108202 120.55539846 86.8783369 120.560188 90.59560525 C120.57128477 99.37218088 120.57172065 108.14871372 120.56567383 116.92529297 C120.559643 125.96214364 120.57192198 134.99883825 120.5932439 144.03566229 C120.61089907 151.80573217 120.6168548 159.57575258 120.61360615 167.34584177 C120.61179824 171.98123119 120.61437951 176.61650948 120.62832069 181.25188065 C120.64095702 185.61694871 120.6389004 189.98177526 120.62590981 194.3468399 C120.62355647 195.9418814 120.62623374 197.53694018 120.63453293 199.13196182 C120.72465912 217.81258522 115.61719686 234.71294064 102.45458984 248.41625977 C87.44407035 263.26457296 70.44798285 267.67533885 49.96508789 267.68139648 C48.3248304 267.68902835 46.68457645 267.69745759 45.04432678 267.70661926 C40.61043836 267.72846398 36.17661884 267.73734906 31.7426827 267.74244571 C28.96808456 267.74609977 26.19350421 267.7523451 23.41891289 267.7594471 C13.72693978 267.78390223 4.03501995 267.79698593 -5.65698242 267.80053711 C-14.67243814 267.80417411 -23.68755382 267.83409133 -32.7029056 267.87594169 C-40.4611527 267.91068621 -48.21928725 267.92608623 -55.9776116 267.92678314 C-60.60350769 267.92757423 -65.2290565 267.93623618 -69.85487175 267.96478081 C-74.20615162 267.99103463 -78.5567979 267.99312623 -82.90812111 267.97712517 C-84.49876162 267.97531675 -86.08943922 267.98194628 -87.68000031 267.99794388 C-96.52743284 268.08145972 -104.39640744 267.88691738 -111.75 262.375 C-116.90977455 256.89309669 -119.97956119 251.4594128 -120.04052734 243.80957031 C-120.05328705 242.71783508 -120.06604675 241.62609985 -120.07919312 240.50128174 C-120.08141876 239.33039001 -120.08364441 238.15949829 -120.0859375 236.953125 C-120.0925943 235.73856628 -120.0992511 234.52400757 -120.10610962 233.27264404 C-120.11622825 230.7039135 -120.12092688 228.13515671 -120.12060547 225.56640625 C-120.12496856 221.65320005 -120.16127146 217.741131 -120.19921875 213.828125 C-120.20508917 211.32812884 -120.20905705 208.82812734 -120.2109375 206.328125 C-120.22530853 205.1653302 -120.23967957 204.0025354 -120.25448608 202.80450439 C-120.20998276 194.8173602 -118.90741818 188.67918023 -114.13671875 182.17578125 C-109.31500509 177.95262515 -104.1321953 175.77979906 -98.19482422 173.57128906 C-91.16621794 170.90300546 -86.00983835 167.33875631 -82.5390625 160.47265625 C-79.16786592 151.51061385 -79.11830692 143.24565574 -82.75 134.375 C-87.08561966 126.17009187 -93.46667792 122.94387813 -101.75 119.375 C-109.86387386 115.69172831 -114.76929681 111.47857436 -118.75 103.375 C-120.13413138 97.57131155 -119.94775386 91.62811418 -119.98828125 85.6953125 C-119.996353 84.56858124 -120.00442474 83.44184998 -120.01274109 82.28097534 C-120.02654058 79.90233888 -120.03728112 77.52368296 -120.04516602 75.14501953 C-120.05670526 72.71852801 -120.07718741 70.29206226 -120.10668945 67.86572266 C-120.14940776 64.35041134 -120.16553932 60.83585129 -120.17578125 57.3203125 C-120.19328934 56.24298859 -120.21079742 55.16566467 -120.22883606 54.05569458 C-120.20581226 46.01971381 -118.64334145 40.72518484 -113.375 34.625 C-107.47229663 29.56553997 -103.19934328 27.27470097 -95.44262695 27.16967773 C-94.14150467 27.14973251 -92.84038239 27.12978729 -91.49983215 27.10923767 C-90.0793164 27.09225454 -88.6587994 27.07537569 -87.23828125 27.05859375 C-85.78524694 27.03801863 -84.33221854 27.01702201 -82.87919617 26.99562073 C-79.0570047 26.94045766 -75.23475974 26.89102302 -71.41247559 26.84277344 C-67.51126348 26.79251628 -63.61012895 26.73685222 -59.70898438 26.68164062 C-52.05605531 26.57412959 -44.40306167 26.47266902 -36.75 26.375 C-36.3487793 25.62516846 -35.94755859 24.87533691 -35.53417969 24.1027832 C-34.73608887 22.62297974 -34.73608887 22.62297974 -33.921875 21.11328125 C-33.3969043 20.13657471 -32.87193359 19.15986816 -32.33105469 18.15356445 C-27.53566469 9.7260886 -20.91118014 4.92475393 -11.984375 1.23046875 C-7.92733894 0.15741211 -4.18053224 -0.00876422 0 0 Z " fill="#FFCA27" transform="translate(391.75,244.625)"/>
<path d="M0 0 C1.0227632 -0.00573832 1.0227632 -0.00573832 2.06618828 -0.01159257 C4.3444111 -0.0218874 6.62238023 -0.01793708 8.90061951 -0.01396179 C10.53704053 -0.01831045 12.17345952 -0.02349411 13.80987549 -0.02944946 C18.25241516 -0.04284016 22.69486974 -0.04341762 27.13742566 -0.04088616 C30.8521181 -0.03981562 34.56679339 -0.04470241 38.28148216 -0.04949158 C47.05330402 -0.06058891 55.82508308 -0.06102415 64.59690857 -0.05497742 C73.6257869 -0.04894868 82.65450897 -0.06122009 91.68336064 -0.08254749 C99.44835065 -0.10021057 107.21329116 -0.10615709 114.97830051 -0.10290974 C119.60980947 -0.10110284 124.24120717 -0.10367279 128.87269783 -0.11762428 C133.23530666 -0.13027326 137.597674 -0.12819222 141.96027946 -0.11521339 C143.55328836 -0.11286265 145.14631462 -0.11552781 146.73930359 -0.12383652 C165.90491838 -0.21651563 182.03298884 4.6599557 196.0922699 18.05610657 C211.02355841 32.98739508 215.40189213 50.08315188 215.40794373 70.54560852 C215.41557559 72.18586602 215.42400484 73.82611996 215.4331665 75.46636963 C215.45501122 79.90025806 215.4638963 84.33407757 215.46899295 88.76801372 C215.47264701 91.54261185 215.47889234 94.31719221 215.48599434 97.09178352 C215.51044947 106.78375663 215.52353317 116.47567646 215.52708435 126.16767883 C215.53072135 135.18313455 215.56063857 144.19825023 215.60248893 153.21360201 C215.63723345 160.97184912 215.65263347 168.72998366 215.65333039 176.48830801 C215.65412147 181.1142041 215.66278342 185.73975291 215.69132805 190.36556816 C215.71758187 194.71684803 215.71967347 199.06749431 215.70367241 203.41881752 C215.70186399 205.00945803 215.70849352 206.60013563 215.72449112 208.19069672 C215.80800696 217.03812925 215.61346462 224.90710385 210.10154724 232.26069641 C204.61964393 237.42047096 199.18596004 240.4902576 191.53611755 240.55122375 C190.44438232 240.56398346 189.35264709 240.57674316 188.22782898 240.58988953 C187.05693726 240.59211517 185.88604553 240.59434082 184.67967224 240.59663391 C182.85783417 240.60661911 182.85783417 240.60661911 180.99919128 240.61680603 C178.43046074 240.62692466 175.86170395 240.6316233 173.29295349 240.63130188 C169.37974729 240.63566497 165.46767824 240.67196787 161.55467224 240.70991516 C159.05467608 240.71578558 156.55467459 240.71975346 154.05467224 240.72163391 C152.31048004 240.74319046 152.31048004 240.74319046 150.53105164 240.7651825 C142.54390744 240.72067917 136.40572747 239.41811459 129.90232849 234.64741516 C125.67658488 229.82274726 123.51552064 224.63690491 121.29124451 218.70332336 C118.06255883 210.24997917 113.99172304 205.93178474 105.73826599 202.20600891 C97.56831895 199.2769316 90.06944143 199.91744256 82.10154724 203.26069641 C73.92561995 207.67004085 70.6802448 213.95458355 67.10154724 222.26069641 C63.62358408 229.92229642 59.9257936 234.62390768 52.26170349 238.46382141 C45.96972218 240.78491397 39.25122796 240.45288776 32.64060974 240.49897766 C30.98380692 240.51108528 30.98380692 240.51108528 29.29353333 240.5234375 C26.96197562 240.53723559 24.63039807 240.54797675 22.29881287 240.55586243 C19.92082274 240.56740133 17.5428589 240.58788297 15.1650238 240.61738586 C11.71920772 240.66011246 8.27415801 240.67623678 4.82810974 240.68647766 C3.77265961 240.70398575 2.71720947 240.72149384 1.629776 240.73953247 C-6.33384962 240.71625967 -11.60446808 239.10550136 -17.64845276 233.88569641 C-22.70791279 227.98299304 -24.99875179 223.71003969 -25.10377502 215.95332336 C-25.12372025 214.65220108 -25.14366547 213.3510788 -25.16421509 212.01052856 C-25.18119822 210.59001281 -25.19807707 209.16949581 -25.21485901 207.74897766 C-25.23543413 206.29594335 -25.25643075 204.84291495 -25.27783203 203.38989258 C-25.3329951 199.56770112 -25.38242974 195.74545615 -25.43067932 191.923172 C-25.48093648 188.02195989 -25.53660054 184.12082536 -25.59181213 180.21968079 C-25.69932317 172.56675172 -25.80078374 164.91375808 -25.89845276 157.26069641 C-27.02320007 156.65886536 -27.02320007 156.65886536 -28.17066956 156.0448761 C-29.1572052 155.51281555 -30.14374084 154.980755 -31.16017151 154.43257141 C-32.62523132 153.64511536 -32.62523132 153.64511536 -34.11988831 152.8417511 C-42.54736415 148.0463611 -47.34869883 141.42187655 -51.04298401 132.49507141 C-52.11604065 128.43803535 -52.28221698 124.69122865 -52.27345276 120.51069641 C-52.27184143 119.71373352 -52.2702301 118.91677063 -52.26856995 118.09565735 C-52.13807328 111.81390617 -51.05899466 106.76157037 -47.89845276 101.26069641 C-47.30032776 100.20882141 -46.70220276 99.15694641 -46.08595276 98.07319641 C-41.85025568 92.62730016 -37.94680724 88.56717209 -31.65626526 85.54585266 C-30.76310608 85.11280823 -29.8699469 84.67976379 -28.94972229 84.2335968 C-27.93434387 83.75201111 -27.93434387 83.75201111 -26.89845276 83.26069641 C-26.74681706 80.11506227 -26.60196977 76.96931671 -26.46095276 73.82319641 C-26.41293518 72.7943634 -26.3649176 71.7655304 -26.31544495 70.70552063 C-26.04063937 64.33676483 -25.86687646 57.98022947 -25.80969238 51.60620117 C-25.77667948 47.94879436 -25.72663974 44.2916657 -25.67747498 40.63444519 C-25.65825217 38.81381746 -25.64765964 36.99307651 -25.64604187 35.17234802 C-25.62238638 15.4817473 -25.62238638 15.4817473 -19.89845276 8.26069641 C-13.84251664 2.59607137 -8.3735668 0.01410512 0 0 Z " fill="#41A5F5" transform="translate(296.89845275878906,-0.2606964111328125)"/>
<path d="M0 0 C1.6402575 -0.00763186 3.28051144 -0.01606111 4.92076111 -0.02522278 C9.35464953 -0.0470675 13.78846905 -0.05595257 18.2224052 -0.06104922 C20.99700333 -0.06470329 23.77158369 -0.07094861 26.546175 -0.07805061 C36.23814811 -0.10250575 45.93006794 -0.11558945 55.62207031 -0.11914062 C64.63752603 -0.12277762 73.65264171 -0.15269485 82.66799349 -0.19454521 C90.4262406 -0.22928972 98.18437514 -0.24468975 105.94269949 -0.24538666 C110.56859558 -0.24617775 115.19414439 -0.25483969 119.81995964 -0.28338432 C124.17123951 -0.30963815 128.52188579 -0.31172975 132.873209 -0.29572868 C134.46384951 -0.29392027 136.05452711 -0.3005498 137.6450882 -0.31654739 C146.49252073 -0.40006324 154.36149533 -0.20552089 161.71508789 5.30639648 C166.87486244 10.7882998 169.94464908 16.22198368 170.00561523 23.87182617 C170.01837494 24.9635614 170.03113464 26.05529663 170.04428101 27.18011475 C170.04650665 28.35100647 170.0487323 29.52189819 170.05102539 30.72827148 C170.06101059 32.55010956 170.06101059 32.55010956 170.07119751 34.40875244 C170.08131614 36.97748299 170.08601477 39.54623978 170.08569336 42.11499023 C170.09005645 46.02819643 170.12635935 49.94026548 170.16430664 53.85327148 C170.17017706 56.35326764 170.17414494 58.85326914 170.17602539 61.35327148 C170.19039642 62.51606628 170.20476746 63.67886108 170.21957397 64.87689209 C170.17507065 72.86403628 168.87250607 79.00221625 164.10180664 85.50561523 C159.27713874 89.73135885 154.09129639 91.89242309 148.15771484 94.11669922 C139.65372929 97.36472695 135.39606466 101.43988849 131.66040039 109.73999023 C128.65624815 117.89589116 129.62821377 125.23965227 132.71508789 133.30639648 C137.02096013 141.51642694 143.44849834 144.74472758 151.71508789 148.30639648 C159.82896175 151.98966817 164.7343847 156.20282213 168.71508789 164.30639648 C170.09921927 170.11008493 169.91284175 176.05328231 169.95336914 181.98608398 C169.96144089 183.11281525 169.96951263 184.23954651 169.97782898 185.40042114 C169.99162847 187.77905761 170.00236901 190.15771353 170.01025391 192.53637695 C170.02179315 194.96286847 170.0422753 197.38933423 170.07177734 199.81567383 C170.11449566 203.33098514 170.13062721 206.8455452 170.14086914 210.36108398 C170.15837723 211.4384079 170.17588531 212.51573181 170.19392395 213.6257019 C170.17090015 221.66168268 168.60842934 226.95621165 163.34008789 233.05639648 C157.43738452 238.11585652 153.16443117 240.40669551 145.40771484 240.51171875 C144.10659256 240.53166397 142.80547028 240.55160919 141.46492004 240.57215881 C140.04440429 240.58914194 138.62388729 240.60602079 137.20336914 240.62280273 C135.75033483 240.64337786 134.29730643 240.66437448 132.84428406 240.68577576 C129.0220926 240.74093882 125.19984763 240.79037346 121.37756348 240.83862305 C117.47635137 240.88888021 113.57521684 240.94454426 109.67407227 240.99975586 C102.0211432 241.1072669 94.36814956 241.20872747 86.71508789 241.30639648 C86.31386719 242.05622803 85.91264648 242.80605957 85.49926758 243.57861328 C84.96720703 244.56514893 84.43514648 245.55168457 83.88696289 246.56811523 C83.36199219 247.54482178 82.83702148 248.52152832 82.29614258 249.52783203 C77.50075258 257.95530788 70.87626803 262.75664256 61.94946289 266.45092773 C57.89242683 267.52398437 54.14562013 267.6901607 49.96508789 267.68139648 C48.76964355 267.67897949 48.76964355 267.67897949 47.55004883 267.67651367 C41.26829765 267.54601701 36.21596185 266.46693838 30.71508789 263.30639648 C29.66321289 262.70827148 28.61133789 262.11014648 27.52758789 261.49389648 C22.08169164 257.2581994 18.02156357 253.35475097 15.00024414 247.06420898 C14.56719971 246.1710498 14.13415527 245.27789062 13.68798828 244.35766602 C13.36693115 243.68074707 13.04587402 243.00382813 12.71508789 242.30639648 C9.75699175 242.15361569 6.79880886 242.00882736 3.84008789 241.86889648 C2.86080322 241.82087891 1.88151855 241.77286133 0.87255859 241.72338867 C-5.43339774 241.4404381 -11.7262791 241.27326067 -18.03790283 241.21763611 C-21.78276233 241.1845375 -25.52735359 241.13445436 -29.27203369 241.0854187 C-31.14415663 241.0661883 -33.01638984 241.05560272 -34.88861084 241.0539856 C-55.1414752 241.03034727 -55.1414752 241.03034727 -62.28491211 235.30639648 C-67.9472263 229.24597906 -70.53149754 223.7849866 -70.54560852 215.40794373 C-70.54943407 214.72610159 -70.55325961 214.04425946 -70.55720109 213.34175545 C-70.56749592 211.06353262 -70.5635456 208.78556349 -70.55957031 206.50732422 C-70.56391897 204.87090319 -70.56910263 203.2344842 -70.57505798 201.59806824 C-70.58844868 197.15552857 -70.58902614 192.71307398 -70.58649468 188.27051806 C-70.58542414 184.55582562 -70.59031094 180.84115033 -70.5951001 177.12646157 C-70.60619743 168.3546397 -70.60663267 159.58286065 -70.60058594 150.81103516 C-70.5945572 141.78215682 -70.60682861 132.75343476 -70.62815601 123.72458309 C-70.64581909 115.95959307 -70.65176561 108.19465256 -70.64851826 100.42964321 C-70.64671136 95.79813426 -70.64928131 91.16673655 -70.6632328 86.5352459 C-70.67588178 82.17263706 -70.67380074 77.81026973 -70.66082191 73.44766426 C-70.65847117 71.85465536 -70.66113633 70.2616291 -70.66944504 68.66864014 C-70.76212415 49.50302535 -65.88565282 33.37495489 -52.48950195 19.31567383 C-37.55821344 4.38438532 -20.46245664 0.00605159 0 0 Z " fill="#65BB69" transform="translate(70.284912109375,-0.306396484375)"/>
<path d="M0 0 C3.79124747 -0.14714061 7.58174654 -0.23467827 11.375 -0.3125 C12.96634766 -0.3753418 12.96634766 -0.3753418 14.58984375 -0.43945312 C22.08567221 -0.55441982 27.80099122 0.62034442 34 5 C39.69359006 11.00624385 42.24666847 16.56856086 42.26069641 24.90518188 C42.26643473 25.92900343 42.26643473 25.92900343 42.27228898 26.97350824 C42.2825838 29.25406496 42.27863351 31.53436825 42.2746582 33.81494141 C42.27900682 35.45298495 42.28419047 37.09102645 42.29014587 38.72906494 C42.30353595 43.17566955 42.30411417 47.62218915 42.30158257 52.06880999 C42.30051214 55.78608202 42.30539846 59.5033369 42.310188 63.22060525 C42.32128477 71.99718088 42.32172065 80.77371372 42.31567383 89.55029297 C42.309643 98.58714364 42.32192198 107.62383825 42.3432439 116.66066229 C42.36089907 124.43073217 42.3668548 132.20075258 42.36360615 139.97084177 C42.36179824 144.60623119 42.36437951 149.24150948 42.37832069 153.87688065 C42.39095702 158.24194871 42.3889004 162.60677526 42.37590981 166.9718399 C42.37355647 168.5668814 42.37623374 170.16194018 42.38453293 171.75696182 C42.47465912 190.43758522 37.36719686 207.33794064 24.20458984 221.04125977 C12.63183774 232.48895468 -2.177189 239.99943479 -18.56640625 240.1953125 C-20.89851826 240.18217384 -23.23059235 240.15855263 -25.5625 240.125 C-26.76197266 240.11597656 -27.96144531 240.10695313 -29.19726562 240.09765625 C-32.13172309 240.07427412 -35.06575234 240.0415028 -38 240 C-38 239.67 -38 239.34 -38 239 C-37.42894531 238.91363281 -36.85789062 238.82726562 -36.26953125 238.73828125 C-18.80844215 235.71243274 -3.35137527 227.49257972 7.16015625 213.02734375 C17.33975885 197.3678803 19.14842966 182.69091976 19.16113281 164.52539062 C19.16576901 162.97218205 19.17079473 161.4189746 19.17617798 159.86576843 C19.18922063 155.66955032 19.19573009 151.47334814 19.20018864 147.27711296 C19.20313057 144.65127731 19.20723728 142.02544592 19.21169281 139.39961243 C19.22534188 131.17113756 19.23502304 122.94267254 19.2388947 114.71418715 C19.24337916 105.2379998 19.26095593 95.76195643 19.2898953 86.28581285 C19.31153728 78.94287337 19.32160021 71.59997434 19.32293582 64.25700331 C19.32398138 59.87882397 19.329837 55.50078046 19.34775543 51.12263489 C19.36428138 47.00540403 19.36636981 42.88841051 19.35761642 38.77115822 C19.35684866 37.26557083 19.36115423 35.75997041 19.37107468 34.25441551 C19.42969889 24.79875057 19.14337531 16.75996833 13.8125 8.6875 C10.94396264 5.94645319 8.45218615 4.44960786 4.8671875 2.859375 C3 2 3 2 0 0 Z " fill="#FFC107" transform="translate(470,272)"/>
<path d="M0 0 C4.08319218 -0.0885085 8.16613163 -0.14089063 12.25 -0.1875 C13.38953125 -0.21263672 14.5290625 -0.23777344 15.703125 -0.26367188 C33.25694324 -0.41327828 48.31404245 5.7166474 60.99072266 17.79541016 C75.92201117 32.72669867 80.30034489 49.82245547 80.30639648 70.28491211 C80.31402835 71.9251696 80.32245759 73.56542355 80.33161926 75.20567322 C80.35346398 79.63956164 80.36234906 84.07338116 80.36744571 88.5073173 C80.37109977 91.28191544 80.3773451 94.05649579 80.3844471 96.83108711 C80.40890223 106.52306022 80.42198593 116.21498005 80.42553711 125.90698242 C80.42917411 134.92243814 80.45909133 143.93755382 80.50094169 152.9529056 C80.53568621 160.7111527 80.55108623 168.46928725 80.55178314 176.2276116 C80.55257423 180.85350769 80.56123618 185.4790565 80.58978081 190.10487175 C80.61603463 194.45615162 80.61812623 198.8067979 80.60212517 203.15812111 C80.60031675 204.74876162 80.60694628 206.33943922 80.62294388 207.93000031 C80.70645972 216.77743284 80.51191738 224.64640744 75 232 C69.2601749 237.40254028 63.81570831 240.27404639 55.82421875 240.1953125 C54.66728516 240.18886719 53.51035156 240.18242187 52.31835938 240.17578125 C50.52108398 240.15064453 50.52108398 240.15064453 48.6875 240.125 C47.46998047 240.11597656 46.25246094 240.10695312 44.99804688 240.09765625 C41.99849726 240.07413037 38.99934956 240.04125653 36 240 C36 239.67 36 239.34 36 239 C36.65226562 238.84144531 37.30453125 238.68289062 37.9765625 238.51953125 C44.56115118 236.76169858 49.28122336 234.89600459 53.33457184 229.0875597 C57.77503598 221.29609601 57.69616801 213.72224378 57.61523438 205.01635742 C57.61874138 203.42022615 57.62440647 201.82409839 57.63204956 200.22798157 C57.64622759 195.91768598 57.62930286 191.60803378 57.60576439 187.29779983 C57.58555429 182.76887446 57.59154039 178.2399732 57.59387207 173.71101379 C57.59381859 166.10435475 57.57412136 158.49794485 57.54199219 150.89135742 C57.50514334 142.12537046 57.49631228 133.35971007 57.5032897 124.59365577 C57.50961982 116.12968214 57.49879161 107.66581929 57.47932434 99.20186806 C57.47119762 95.61488567 57.46843203 92.02796027 57.47001648 88.44096947 C57.47090272 84.20628544 57.45648273 79.97190626 57.43078995 75.73730278 C57.42369519 74.19310231 57.42151175 72.64886925 57.42490768 71.10465622 C57.4467833 58.80076858 56.22910349 47.01210102 50.5 35.9375 C49.98832275 34.93698608 49.98832275 34.93698608 49.46630859 33.91625977 C41.53136868 19.179691 27.84843207 8.32816335 11.9375 3.3125 C7.96417236 2.18252738 4.10367167 1.44605127 0 1 C0 0.67 0 0.34 0 0 Z " fill="#2196F3" transform="translate(432,0)"/>
</svg>
